<?xml version="1.0" standalone="no"?>
<!DOCTYPE svg PUBLIC "-//W3C//DTD SVG 20010904//EN"
 "http://www.w3.org/TR/2001/REC-SVG-20010904/DTD/svg10.dtd">
<svg version="1.0" xmlns="http://www.w3.org/2000/svg"
 width="512.000000pt" height="512.000000pt" viewBox="0 0 512.000000 512.000000"
 preserveAspectRatio="xMidYMid meet">
<metadata>
Created by potrace 1.11, written by Peter Selinger 2001-2013
</metadata>
<g transform="translate(0.000000,512.000000) scale(0.100000,-0.100000)"
fill="#000000" stroke="none">
<path d="M2365 5114 c-108 -9 -326 -46 -435 -73 -172 -44 -335 -105 -509 -192
-503 -249 -900 -646 -1150 -1150 -126 -252 -198 -480 -243 -764 -32 -201 -32
-549 0 -750 45 -284 117 -512 243 -764 129 -261 281 -470 491 -678 211 -209
404 -346 673 -478 258 -127 490 -199 780 -242 181 -26 533 -24 720 5 280 44
513 118 764 243 258 128 453 268 659 472 216 213 364 420 498 692 183 375 258
700 258 1125 0 425 -75 750 -258 1125 -134 272 -283 480 -498 692 -388 385
-870 628 -1413 713 -127 20 -459 34 -580 24z m780 -893 l70 -6 11 -70 c7 -38
10 -72 8 -74 -2 -3 -57 -5 -121 -5 l-117 -1 -17 83 -16 82 56 -1 c31 -1 87 -4
126 -8z m-545 -237 c0 -10 -167 -114 -182 -114 -11 0 -139 162 -133 168 4 4
46 28 93 53 l87 45 67 -70 c37 -39 67 -76 68 -82z m856 32 c55 -14 129 -36
165 -49 149 -56 335 -167 472 -282 76 -63 74 -48 21 -130 -21 -32 -29 -31 -71
5 -43 38 -131 83 -209 106 -88 27 -255 25 -359 -5 -183 -51 -383 -177 -529
-331 -162 -173 -263 -370 -318 -622 -29 -134 -36 -454 -14 -642 31 -271 112
-604 209 -859 l44 -117 -781 2 -781 3 -3 120 c-10 378 104 918 284 1346 73
174 277 579 349 694 151 241 358 457 553 579 300 187 663 256 968 182z m424
-42 c78 -57 89 -68 80 -84 -18 -33 -28 -32 -111 11 l-81 42 6 36 c3 20 6 42 6
49 0 6 2 12 5 12 3 0 46 -30 95 -66z m-1957 -416 c49 -33 87 -63 85 -68 -2 -5
-36 -47 -76 -95 l-74 -86 -28 18 c-132 86 -179 119 -177 125 1 3 37 45 80 92
47 52 83 83 90 79 7 -3 52 -33 100 -65z m1940 11 c34 -9 37 -13 37 -45 l0 -35
-47 6 c-120 15 -113 12 -113 57 l0 41 43 -7 c23 -4 59 -11 80 -17z m-449 -59
c10 -47 9 -49 -75 -110 l-27 -20 -36 70 -37 69 38 10 c21 5 54 14 73 19 49 14
54 11 64 -38z m-354 -265 l53 -79 -34 -64 -34 -64 -68 74 c-112 121 -109 110
-41 172 33 30 62 51 65 48 4 -4 30 -43 59 -87z m-1629 -443 c64 -26 118 -51
119 -57 1 -5 -15 -58 -36 -116 -36 -105 -37 -107 -63 -98 -14 4 -76 24 -138
44 l-112 36 42 119 c29 83 47 120 57 120 8 -1 67 -22 131 -48z m1419 -17 c36
-26 69 -52 74 -56 4 -4 -2 -50 -14 -103 -20 -87 -23 -96 -38 -84 -67 52 -182
153 -182 160 0 5 16 40 36 79 25 50 39 68 47 61 7 -5 41 -30 77 -57z m-58
-527 c68 -36 103 -60 109 -76 8 -21 13 -172 6 -172 -2 0 -55 22 -118 49 -74
32 -115 56 -118 67 -4 23 9 184 16 184 3 0 50 -23 105 -52z m-1636 -394 c67
-3 127 -9 133 -13 7 -5 3 -50 -15 -151 -14 -80 -27 -146 -29 -148 -3 -4 -278
29 -283 33 -3 3 28 264 34 283 2 7 12 11 21 8 10 -3 73 -8 139 -12z m1908
-386 c29 -62 52 -114 51 -116 -4 -5 -295 15 -301 21 -4 4 -63 192 -64 205 0 1
59 2 130 2 l131 0 53 -112z"/>
</g>
</svg>
